<mxfile host="app.diagrams.net" agent="Mozilla/5.0 (Windows NT 10.0; Win64; x64) AppleWebKit/537.36 (KHTML, like Gecko) Chrome/138.0.0.0 Safari/537.36 OPR/122.0.0.0" version="28.2.8" pages="2">
  <diagram name="Дон-Шина" id="wi7j1Zr6GvYFjA8v8w2t">
    <mxGraphModel dx="2199" dy="744" grid="1" gridSize="10" guides="1" tooltips="1" connect="1" arrows="1" fold="1" page="1" pageScale="1" pageWidth="827" pageHeight="1169" math="0" shadow="0">
      <root>
        <mxCell id="0" />
        <mxCell id="1" parent="0" />
        <mxCell id="RQQ3WJigJ5AB5Mvb7kZl-36" style="rounded=0;orthogonalLoop=1;jettySize=auto;html=1;entryX=0.5;entryY=0;entryDx=0;entryDy=0;" parent="1" source="RQQ3WJigJ5AB5Mvb7kZl-2" target="RQQ3WJigJ5AB5Mvb7kZl-5" edge="1">
          <mxGeometry relative="1" as="geometry" />
        </mxCell>
        <mxCell id="RQQ3WJigJ5AB5Mvb7kZl-37" style="rounded=0;orthogonalLoop=1;jettySize=auto;html=1;entryX=0.5;entryY=0;entryDx=0;entryDy=0;" parent="1" source="RQQ3WJigJ5AB5Mvb7kZl-2" target="RQQ3WJigJ5AB5Mvb7kZl-4" edge="1">
          <mxGeometry relative="1" as="geometry" />
        </mxCell>
        <mxCell id="RQQ3WJigJ5AB5Mvb7kZl-2" value="Дон-Шина" style="whiteSpace=wrap;strokeWidth=2;fillColor=#dae8fc;strokeColor=#6c8ebf;" parent="1" vertex="1">
          <mxGeometry x="-20" y="70" width="135" height="54" as="geometry" />
        </mxCell>
        <mxCell id="RQQ3WJigJ5AB5Mvb7kZl-28" style="edgeStyle=orthogonalEdgeStyle;rounded=0;orthogonalLoop=1;jettySize=auto;html=1;entryX=0;entryY=0.5;entryDx=0;entryDy=0;exitX=0;exitY=0.5;exitDx=0;exitDy=0;" parent="1" source="RQQ3WJigJ5AB5Mvb7kZl-3" target="RQQ3WJigJ5AB5Mvb7kZl-6" edge="1">
          <mxGeometry relative="1" as="geometry" />
        </mxCell>
        <mxCell id="RQQ3WJigJ5AB5Mvb7kZl-29" style="edgeStyle=orthogonalEdgeStyle;rounded=0;orthogonalLoop=1;jettySize=auto;html=1;entryX=0;entryY=0.5;entryDx=0;entryDy=0;exitX=0;exitY=0.5;exitDx=0;exitDy=0;" parent="1" source="RQQ3WJigJ5AB5Mvb7kZl-3" target="RQQ3WJigJ5AB5Mvb7kZl-7" edge="1">
          <mxGeometry relative="1" as="geometry" />
        </mxCell>
        <UserObject label="Работа с поставщиками" link="data:page/id,d4vUXniRH21uh6J9dGe6" id="RQQ3WJigJ5AB5Mvb7kZl-3">
          <mxCell style="whiteSpace=wrap;strokeWidth=2;fillColor=#fff2cc;strokeColor=#d6b656;fontSize=14;" parent="1" vertex="1">
            <mxGeometry x="-360" y="160" width="200" height="40" as="geometry" />
          </mxCell>
        </UserObject>
        <mxCell id="RQQ3WJigJ5AB5Mvb7kZl-30" style="edgeStyle=orthogonalEdgeStyle;rounded=0;orthogonalLoop=1;jettySize=auto;html=1;entryX=0;entryY=0.5;entryDx=0;entryDy=0;exitX=0;exitY=0.5;exitDx=0;exitDy=0;" parent="1" source="RQQ3WJigJ5AB5Mvb7kZl-4" target="RQQ3WJigJ5AB5Mvb7kZl-8" edge="1">
          <mxGeometry relative="1" as="geometry" />
        </mxCell>
        <mxCell id="RQQ3WJigJ5AB5Mvb7kZl-31" style="edgeStyle=orthogonalEdgeStyle;rounded=0;orthogonalLoop=1;jettySize=auto;html=1;entryX=0;entryY=0.5;entryDx=0;entryDy=0;exitX=0;exitY=0.5;exitDx=0;exitDy=0;" parent="1" source="RQQ3WJigJ5AB5Mvb7kZl-4" target="RQQ3WJigJ5AB5Mvb7kZl-9" edge="1">
          <mxGeometry relative="1" as="geometry" />
        </mxCell>
        <mxCell id="RQQ3WJigJ5AB5Mvb7kZl-4" value="Сайт" style="whiteSpace=wrap;strokeWidth=2;fillColor=#fff2cc;strokeColor=#d6b656;fontSize=14;" parent="1" vertex="1">
          <mxGeometry x="-40" y="160" width="94" height="40" as="geometry" />
        </mxCell>
        <mxCell id="RQQ3WJigJ5AB5Mvb7kZl-32" style="edgeStyle=orthogonalEdgeStyle;rounded=0;orthogonalLoop=1;jettySize=auto;html=1;entryX=0;entryY=0.5;entryDx=0;entryDy=0;exitX=0;exitY=0.5;exitDx=0;exitDy=0;" parent="1" source="RQQ3WJigJ5AB5Mvb7kZl-5" target="RQQ3WJigJ5AB5Mvb7kZl-10" edge="1">
          <mxGeometry relative="1" as="geometry" />
        </mxCell>
        <mxCell id="RQQ3WJigJ5AB5Mvb7kZl-33" style="edgeStyle=orthogonalEdgeStyle;rounded=0;orthogonalLoop=1;jettySize=auto;html=1;entryX=0;entryY=0.5;entryDx=0;entryDy=0;exitX=0;exitY=0.5;exitDx=0;exitDy=0;" parent="1" source="RQQ3WJigJ5AB5Mvb7kZl-5" target="RQQ3WJigJ5AB5Mvb7kZl-11" edge="1">
          <mxGeometry relative="1" as="geometry" />
        </mxCell>
        <mxCell id="RQQ3WJigJ5AB5Mvb7kZl-34" style="edgeStyle=orthogonalEdgeStyle;rounded=0;orthogonalLoop=1;jettySize=auto;html=1;entryX=0;entryY=0.5;entryDx=0;entryDy=0;exitX=0;exitY=0.5;exitDx=0;exitDy=0;" parent="1" source="RQQ3WJigJ5AB5Mvb7kZl-5" target="RQQ3WJigJ5AB5Mvb7kZl-12" edge="1">
          <mxGeometry relative="1" as="geometry" />
        </mxCell>
        <mxCell id="RQQ3WJigJ5AB5Mvb7kZl-35" style="edgeStyle=orthogonalEdgeStyle;rounded=0;orthogonalLoop=1;jettySize=auto;html=1;entryX=0;entryY=0.5;entryDx=0;entryDy=0;exitX=0;exitY=0.5;exitDx=0;exitDy=0;" parent="1" source="RQQ3WJigJ5AB5Mvb7kZl-5" target="RQQ3WJigJ5AB5Mvb7kZl-13" edge="1">
          <mxGeometry relative="1" as="geometry" />
        </mxCell>
        <mxCell id="RQQ3WJigJ5AB5Mvb7kZl-5" value="Регламентные задания" style="whiteSpace=wrap;strokeWidth=2;fillColor=#fff2cc;strokeColor=#d6b656;fontSize=14;" parent="1" vertex="1">
          <mxGeometry x="280" y="160" width="231" height="40" as="geometry" />
        </mxCell>
        <mxCell id="RQQ3WJigJ5AB5Mvb7kZl-6" value="Настройки загрузки" style="whiteSpace=wrap;strokeWidth=2;fontSize=14;" parent="1" vertex="1">
          <mxGeometry x="-320" y="240" width="200" height="40" as="geometry" />
        </mxCell>
        <mxCell id="RQQ3WJigJ5AB5Mvb7kZl-7" value="Настройки загрузки XML" style="whiteSpace=wrap;strokeWidth=2;fontSize=14;" parent="1" vertex="1">
          <mxGeometry x="-320" y="320" width="200" height="44" as="geometry" />
        </mxCell>
        <mxCell id="RQQ3WJigJ5AB5Mvb7kZl-8" value="Настройка выгрузки на сайт" style="whiteSpace=wrap;strokeWidth=2;fontSize=14;" parent="1" vertex="1">
          <mxGeometry y="238" width="200" height="42" as="geometry" />
        </mxCell>
        <mxCell id="RQQ3WJigJ5AB5Mvb7kZl-9" value="Точки продаж" style="whiteSpace=wrap;strokeWidth=2;fontSize=14;" parent="1" vertex="1">
          <mxGeometry y="320" width="200" height="40" as="geometry" />
        </mxCell>
        <mxCell id="RQQ3WJigJ5AB5Mvb7kZl-10" value="Настройки доступа к HTTP-обмену" style="whiteSpace=wrap;strokeWidth=2;fontSize=14;" parent="1" vertex="1">
          <mxGeometry x="320" y="242" width="260" height="38" as="geometry" />
        </mxCell>
        <mxCell id="RQQ3WJigJ5AB5Mvb7kZl-11" value="Анализ регламентных заданий" style="whiteSpace=wrap;strokeWidth=2;fontSize=14;" parent="1" vertex="1">
          <mxGeometry x="320" y="320" width="260" height="40" as="geometry" />
        </mxCell>
        <mxCell id="RQQ3WJigJ5AB5Mvb7kZl-12" value="Коды выполнения регламентных заданий" style="whiteSpace=wrap;strokeWidth=2;fontSize=14;" parent="1" vertex="1">
          <mxGeometry x="320" y="400" width="260" height="40" as="geometry" />
        </mxCell>
        <mxCell id="RQQ3WJigJ5AB5Mvb7kZl-13" value="Настройки сортировки номенклатуры" style="whiteSpace=wrap;strokeWidth=2;fontSize=14;" parent="1" vertex="1">
          <mxGeometry x="320" y="480" width="260" height="40" as="geometry" />
        </mxCell>
        <mxCell id="RQQ3WJigJ5AB5Mvb7kZl-14" value="" style="startArrow=none;endArrow=block;exitX=0;exitY=0.59;entryX=0.5;entryY=0;rounded=0;" parent="1" source="RQQ3WJigJ5AB5Mvb7kZl-2" target="RQQ3WJigJ5AB5Mvb7kZl-3" edge="1">
          <mxGeometry relative="1" as="geometry" />
        </mxCell>
      </root>
    </mxGraphModel>
  </diagram>
  <diagram id="d4vUXniRH21uh6J9dGe6" name="Работа с поставщиками">
    <mxGraphModel dx="1715" dy="2099" grid="1" gridSize="17" guides="1" tooltips="1" connect="1" arrows="1" fold="1" page="1" pageScale="1" pageWidth="827" pageHeight="1169" math="0" shadow="0">
      <root>
        <mxCell id="0" />
        <mxCell id="1" parent="0" />
        <mxCell id="L4FFusNpEaRzpc_e0NBY-192" style="edgeStyle=entityRelationEdgeStyle;rounded=0;orthogonalLoop=1;jettySize=auto;html=1;entryX=0.5;entryY=0;entryDx=0;entryDy=0;exitX=0.5;exitY=1;exitDx=0;exitDy=0;" edge="1" parent="1" source="rTLj8T8jWH6znEM1Hh0g-1" target="L4FFusNpEaRzpc_e0NBY-71">
          <mxGeometry relative="1" as="geometry" />
        </mxCell>
        <mxCell id="L4FFusNpEaRzpc_e0NBY-193" style="rounded=0;orthogonalLoop=1;jettySize=auto;html=1;entryX=0.5;entryY=0;entryDx=0;entryDy=0;" edge="1" parent="1" source="rTLj8T8jWH6znEM1Hh0g-1" target="L4FFusNpEaRzpc_e0NBY-129">
          <mxGeometry relative="1" as="geometry" />
        </mxCell>
        <mxCell id="rTLj8T8jWH6znEM1Hh0g-1" value="Работа с поставщиками" style="whiteSpace=wrap;strokeWidth=2;fillColor=#fff2cc;strokeColor=#d6b656;fontSize=26;fontStyle=1" vertex="1" parent="1">
          <mxGeometry x="1688" y="-40" width="380" height="40" as="geometry" />
        </mxCell>
        <mxCell id="L4FFusNpEaRzpc_e0NBY-71" value="&lt;&lt;Справочник&gt;&gt;&#xa;НастройкиЗагрузки" style="swimlane;fontStyle=1;align=center;verticalAlign=top;childLayout=stackLayout;horizontal=1;startSize=39.09677419354839;horizontalStack=0;resizeParent=1;resizeParentMax=0;resizeLast=0;collapsible=0;marginBottom=0;fillColor=#fff2cc;gradientColor=#ffd966;strokeColor=#d6b656;" vertex="1" parent="1">
          <mxGeometry x="1280" y="102" width="403" height="806.0967741935484" as="geometry" />
        </mxCell>
        <mxCell id="L4FFusNpEaRzpc_e0NBY-72" value="+Склад: СправочникСсылка.Склады []" style="text;strokeColor=#36393d;fillColor=#ffff88;align=left;verticalAlign=top;spacingLeft=4;spacingRight=4;overflow=hidden;rotatable=0;points=[[0,0.5],[1,0.5]];portConstraint=eastwest;" vertex="1" parent="L4FFusNpEaRzpc_e0NBY-71">
          <mxGeometry y="39.09677419354839" width="403" height="26" as="geometry" />
        </mxCell>
        <mxCell id="L4FFusNpEaRzpc_e0NBY-73" value="+НазваниеЛиста: Строка []" style="text;strokeColor=none;fillColor=none;align=left;verticalAlign=top;spacingLeft=4;spacingRight=4;overflow=hidden;rotatable=0;points=[[0,0.5],[1,0.5]];portConstraint=eastwest;" vertex="1" parent="L4FFusNpEaRzpc_e0NBY-71">
          <mxGeometry y="65.09677419354838" width="403" height="26" as="geometry" />
        </mxCell>
        <mxCell id="L4FFusNpEaRzpc_e0NBY-74" value="+НомерПервойСтроки: Строка, Число []" style="text;strokeColor=none;fillColor=none;align=left;verticalAlign=top;spacingLeft=4;spacingRight=4;overflow=hidden;rotatable=0;points=[[0,0.5],[1,0.5]];portConstraint=eastwest;" vertex="1" parent="L4FFusNpEaRzpc_e0NBY-71">
          <mxGeometry y="91.09677419354838" width="403" height="26" as="geometry" />
        </mxCell>
        <mxCell id="L4FFusNpEaRzpc_e0NBY-75" value="+Поставщик: СправочникСсылка.Партнеры []" style="text;strokeColor=#36393d;fillColor=#ffff88;align=left;verticalAlign=top;spacingLeft=4;spacingRight=4;overflow=hidden;rotatable=0;points=[[0,0.5],[1,0.5]];portConstraint=eastwest;" vertex="1" parent="L4FFusNpEaRzpc_e0NBY-71">
          <mxGeometry y="117.09677419354838" width="403" height="26" as="geometry" />
        </mxCell>
        <mxCell id="L4FFusNpEaRzpc_e0NBY-76" value="+ПроцентКомиссии: Число []" style="text;strokeColor=#6c8ebf;fillColor=#dae8fc;align=left;verticalAlign=top;spacingLeft=4;spacingRight=4;overflow=hidden;rotatable=0;points=[[0,0.5],[1,0.5]];portConstraint=eastwest;" vertex="1" parent="L4FFusNpEaRzpc_e0NBY-71">
          <mxGeometry y="143.09677419354838" width="403" height="26" as="geometry" />
        </mxCell>
        <mxCell id="L4FFusNpEaRzpc_e0NBY-77" value="+ПроцентНаценки: Число []" style="text;strokeColor=#6c8ebf;fillColor=#dae8fc;align=left;verticalAlign=top;spacingLeft=4;spacingRight=4;overflow=hidden;rotatable=0;points=[[0,0.5],[1,0.5]];portConstraint=eastwest;" vertex="1" parent="L4FFusNpEaRzpc_e0NBY-71">
          <mxGeometry y="169.09677419354838" width="403" height="26" as="geometry" />
        </mxCell>
        <mxCell id="L4FFusNpEaRzpc_e0NBY-78" value="+НаименованиеК: Строка, Число []" style="text;strokeColor=none;fillColor=none;align=left;verticalAlign=top;spacingLeft=4;spacingRight=4;overflow=hidden;rotatable=0;points=[[0,0.5],[1,0.5]];portConstraint=eastwest;" vertex="1" parent="L4FFusNpEaRzpc_e0NBY-71">
          <mxGeometry y="195.09677419354838" width="403" height="26" as="geometry" />
        </mxCell>
        <mxCell id="L4FFusNpEaRzpc_e0NBY-79" value="+КодПоставщика: Строка, Число []" style="text;strokeColor=none;fillColor=none;align=left;verticalAlign=top;spacingLeft=4;spacingRight=4;overflow=hidden;rotatable=0;points=[[0,0.5],[1,0.5]];portConstraint=eastwest;" vertex="1" parent="L4FFusNpEaRzpc_e0NBY-71">
          <mxGeometry y="221.09677419354838" width="403" height="26" as="geometry" />
        </mxCell>
        <mxCell id="L4FFusNpEaRzpc_e0NBY-80" value="+ЕдИзмерения: Строка, Число []" style="text;strokeColor=none;fillColor=none;align=left;verticalAlign=top;spacingLeft=4;spacingRight=4;overflow=hidden;rotatable=0;points=[[0,0.5],[1,0.5]];portConstraint=eastwest;" vertex="1" parent="L4FFusNpEaRzpc_e0NBY-71">
          <mxGeometry y="247.09677419354838" width="403" height="26" as="geometry" />
        </mxCell>
        <mxCell id="L4FFusNpEaRzpc_e0NBY-81" value="+Остатки: Строка, Число []" style="text;strokeColor=none;fillColor=none;align=left;verticalAlign=top;spacingLeft=4;spacingRight=4;overflow=hidden;rotatable=0;points=[[0,0.5],[1,0.5]];portConstraint=eastwest;" vertex="1" parent="L4FFusNpEaRzpc_e0NBY-71">
          <mxGeometry y="273.0967741935484" width="403" height="26" as="geometry" />
        </mxCell>
        <mxCell id="L4FFusNpEaRzpc_e0NBY-82" value="+Цены: Строка, Число []" style="text;strokeColor=none;fillColor=none;align=left;verticalAlign=top;spacingLeft=4;spacingRight=4;overflow=hidden;rotatable=0;points=[[0,0.5],[1,0.5]];portConstraint=eastwest;" vertex="1" parent="L4FFusNpEaRzpc_e0NBY-71">
          <mxGeometry y="299.0967741935484" width="403" height="26" as="geometry" />
        </mxCell>
        <mxCell id="L4FFusNpEaRzpc_e0NBY-83" value="+Диски: Булево []" style="text;strokeColor=none;fillColor=none;align=left;verticalAlign=top;spacingLeft=4;spacingRight=4;overflow=hidden;rotatable=0;points=[[0,0.5],[1,0.5]];portConstraint=eastwest;" vertex="1" parent="L4FFusNpEaRzpc_e0NBY-71">
          <mxGeometry y="325.0967741935484" width="403" height="26" as="geometry" />
        </mxCell>
        <mxCell id="L4FFusNpEaRzpc_e0NBY-84" value="+ВариантКомиссии: Вариант комиссии []" style="text;strokeColor=none;fillColor=none;align=left;verticalAlign=top;spacingLeft=4;spacingRight=4;overflow=hidden;rotatable=0;points=[[0,0.5],[1,0.5]];portConstraint=eastwest;" vertex="1" parent="L4FFusNpEaRzpc_e0NBY-71">
          <mxGeometry y="351.0967741935484" width="403" height="26" as="geometry" />
        </mxCell>
        <mxCell id="L4FFusNpEaRzpc_e0NBY-85" value="+СобиратьНазвание: Булево []" style="text;strokeColor=none;fillColor=none;align=left;verticalAlign=top;spacingLeft=4;spacingRight=4;overflow=hidden;rotatable=0;points=[[0,0.5],[1,0.5]];portConstraint=eastwest;" vertex="1" parent="L4FFusNpEaRzpc_e0NBY-71">
          <mxGeometry y="377.0967741935484" width="403" height="26" as="geometry" />
        </mxCell>
        <mxCell id="L4FFusNpEaRzpc_e0NBY-86" value="+ВидНоменклатуры: СправочникСсылка.ВидыНоменклатуры []" style="text;strokeColor=#36393d;fillColor=#ffff88;align=left;verticalAlign=top;spacingLeft=4;spacingRight=4;overflow=hidden;rotatable=0;points=[[0,0.5],[1,0.5]];portConstraint=eastwest;" vertex="1" parent="L4FFusNpEaRzpc_e0NBY-71">
          <mxGeometry y="403.0967741935484" width="403" height="26" as="geometry" />
        </mxCell>
        <mxCell id="L4FFusNpEaRzpc_e0NBY-87" value="+КодПроизводителя: Строка, Число []" style="text;strokeColor=none;fillColor=none;align=left;verticalAlign=top;spacingLeft=4;spacingRight=4;overflow=hidden;rotatable=0;points=[[0,0.5],[1,0.5]];portConstraint=eastwest;" vertex="1" parent="L4FFusNpEaRzpc_e0NBY-71">
          <mxGeometry y="429.0967741935484" width="403" height="26" as="geometry" />
        </mxCell>
        <mxCell id="L4FFusNpEaRzpc_e0NBY-88" value="+ЦеныР: Строка, Число []" style="text;strokeColor=none;fillColor=none;align=left;verticalAlign=top;spacingLeft=4;spacingRight=4;overflow=hidden;rotatable=0;points=[[0,0.5],[1,0.5]];portConstraint=eastwest;" vertex="1" parent="L4FFusNpEaRzpc_e0NBY-71">
          <mxGeometry y="455.0967741935484" width="403" height="26" as="geometry" />
        </mxCell>
        <mxCell id="L4FFusNpEaRzpc_e0NBY-89" value="+Артикул: Строка, Число []" style="text;strokeColor=none;fillColor=none;align=left;verticalAlign=top;spacingLeft=4;spacingRight=4;overflow=hidden;rotatable=0;points=[[0,0.5],[1,0.5]];portConstraint=eastwest;" vertex="1" parent="L4FFusNpEaRzpc_e0NBY-71">
          <mxGeometry y="481.0967741935484" width="403" height="26" as="geometry" />
        </mxCell>
        <mxCell id="L4FFusNpEaRzpc_e0NBY-90" value="+СсылкаНаФайл: Строка []" style="text;strokeColor=none;fillColor=none;align=left;verticalAlign=top;spacingLeft=4;spacingRight=4;overflow=hidden;rotatable=0;points=[[0,0.5],[1,0.5]];portConstraint=eastwest;" vertex="1" parent="L4FFusNpEaRzpc_e0NBY-71">
          <mxGeometry y="507.0967741935484" width="403" height="26" as="geometry" />
        </mxCell>
        <mxCell id="L4FFusNpEaRzpc_e0NBY-91" value="+КаталогХраненияФайла: Строка []" style="text;strokeColor=none;fillColor=none;align=left;verticalAlign=top;spacingLeft=4;spacingRight=4;overflow=hidden;rotatable=0;points=[[0,0.5],[1,0.5]];portConstraint=eastwest;" vertex="1" parent="L4FFusNpEaRzpc_e0NBY-71">
          <mxGeometry y="533.0967741935484" width="403" height="26" as="geometry" />
        </mxCell>
        <mxCell id="L4FFusNpEaRzpc_e0NBY-92" value="+АдресFTP: Строка []" style="text;strokeColor=none;fillColor=none;align=left;verticalAlign=top;spacingLeft=4;spacingRight=4;overflow=hidden;rotatable=0;points=[[0,0.5],[1,0.5]];portConstraint=eastwest;" vertex="1" parent="L4FFusNpEaRzpc_e0NBY-71">
          <mxGeometry y="559.0967741935484" width="403" height="26" as="geometry" />
        </mxCell>
        <mxCell id="L4FFusNpEaRzpc_e0NBY-93" value="+ЛогинFTP: Строка []" style="text;strokeColor=none;fillColor=none;align=left;verticalAlign=top;spacingLeft=4;spacingRight=4;overflow=hidden;rotatable=0;points=[[0,0.5],[1,0.5]];portConstraint=eastwest;" vertex="1" parent="L4FFusNpEaRzpc_e0NBY-71">
          <mxGeometry y="585.0967741935484" width="403" height="26" as="geometry" />
        </mxCell>
        <mxCell id="L4FFusNpEaRzpc_e0NBY-94" value="+ПарольFTP: Строка []" style="text;strokeColor=none;fillColor=none;align=left;verticalAlign=top;spacingLeft=4;spacingRight=4;overflow=hidden;rotatable=0;points=[[0,0.5],[1,0.5]];portConstraint=eastwest;" vertex="1" parent="L4FFusNpEaRzpc_e0NBY-71">
          <mxGeometry y="611.0967741935484" width="403" height="26" as="geometry" />
        </mxCell>
        <mxCell id="L4FFusNpEaRzpc_e0NBY-95" value="+Excel: Число []" style="text;strokeColor=none;fillColor=none;align=left;verticalAlign=top;spacingLeft=4;spacingRight=4;overflow=hidden;rotatable=0;points=[[0,0.5],[1,0.5]];portConstraint=eastwest;" vertex="1" parent="L4FFusNpEaRzpc_e0NBY-71">
          <mxGeometry y="637.0967741935484" width="403" height="26" as="geometry" />
        </mxCell>
        <mxCell id="L4FFusNpEaRzpc_e0NBY-96" value="+ИДПарсера: Строка []" style="text;strokeColor=none;fillColor=none;align=left;verticalAlign=top;spacingLeft=4;spacingRight=4;overflow=hidden;rotatable=0;points=[[0,0.5],[1,0.5]];portConstraint=eastwest;" vertex="1" parent="L4FFusNpEaRzpc_e0NBY-71">
          <mxGeometry y="663.0967741935484" width="403" height="26" as="geometry" />
        </mxCell>
        <mxCell id="L4FFusNpEaRzpc_e0NBY-97" value="+ШтрихКод: Число []" style="text;strokeColor=none;fillColor=none;align=left;verticalAlign=top;spacingLeft=4;spacingRight=4;overflow=hidden;rotatable=0;points=[[0,0.5],[1,0.5]];portConstraint=eastwest;" vertex="1" parent="L4FFusNpEaRzpc_e0NBY-71">
          <mxGeometry y="689.0967741935484" width="403" height="26" as="geometry" />
        </mxCell>
        <mxCell id="L4FFusNpEaRzpc_e0NBY-98" value="+ЧастотаЗагрузкиВДнях: Число []" style="text;strokeColor=none;fillColor=none;align=left;verticalAlign=top;spacingLeft=4;spacingRight=4;overflow=hidden;rotatable=0;points=[[0,0.5],[1,0.5]];portConstraint=eastwest;" vertex="1" parent="L4FFusNpEaRzpc_e0NBY-71">
          <mxGeometry y="715.0967741935484" width="403" height="26" as="geometry" />
        </mxCell>
        <mxCell id="L4FFusNpEaRzpc_e0NBY-99" value="+Активный: Булево []" style="text;strokeColor=#36393d;fillColor=#cce5ff;align=left;verticalAlign=top;spacingLeft=4;spacingRight=4;overflow=hidden;rotatable=0;points=[[0,0.5],[1,0.5]];portConstraint=eastwest;" vertex="1" parent="L4FFusNpEaRzpc_e0NBY-71">
          <mxGeometry y="741.0967741935484" width="403" height="26" as="geometry" />
        </mxCell>
        <mxCell id="L4FFusNpEaRzpc_e0NBY-100" value="+ПроцентМинимальноеНаценкиПриСравнении: Число []" style="text;strokeColor=none;fillColor=none;align=left;verticalAlign=top;spacingLeft=4;spacingRight=4;overflow=hidden;rotatable=0;points=[[0,0.5],[1,0.5]];portConstraint=eastwest;" vertex="1" parent="L4FFusNpEaRzpc_e0NBY-71">
          <mxGeometry y="767.0967741935484" width="403" height="26" as="geometry" />
        </mxCell>
        <mxCell id="L4FFusNpEaRzpc_e0NBY-101" style="line;strokeWidth=1;fillColor=none;align=left;verticalAlign=middle;spacingTop=-1;spacingLeft=3;spacingRight=3;rotatable=0;labelPosition=right;points=[];portConstraint=eastwest;strokeColor=inherit;" vertex="1" parent="L4FFusNpEaRzpc_e0NBY-71">
          <mxGeometry y="793.0967741935484" width="403" height="13" as="geometry" />
        </mxCell>
        <mxCell id="L4FFusNpEaRzpc_e0NBY-102" value="&lt;&lt;ТабличнаяЧасть&gt;&gt;&#xa;Колонки" style="swimlane;fontStyle=1;align=center;verticalAlign=top;childLayout=stackLayout;horizontal=1;startSize=52;horizontalStack=0;resizeParent=1;resizeParentMax=0;resizeLast=0;collapsible=0;marginBottom=0;fillColor=#dae8fc;gradientColor=#7ea6e0;strokeColor=#6c8ebf;" vertex="1" parent="1">
          <mxGeometry x="493" y="136" width="731" height="209" as="geometry" />
        </mxCell>
        <mxCell id="L4FFusNpEaRzpc_e0NBY-103" value="+Свойство: ПланВидовХарактеристикСсылка.ДополнительныеРеквизитыИСведения []" style="text;strokeColor=none;fillColor=none;align=left;verticalAlign=top;spacingLeft=4;spacingRight=4;overflow=hidden;rotatable=0;points=[[0,0.5],[1,0.5]];portConstraint=eastwest;" vertex="1" parent="L4FFusNpEaRzpc_e0NBY-102">
          <mxGeometry y="52" width="731" height="35" as="geometry" />
        </mxCell>
        <mxCell id="L4FFusNpEaRzpc_e0NBY-104" value="+НомерКолонки: Строка, Число []" style="text;strokeColor=none;fillColor=none;align=left;verticalAlign=top;spacingLeft=4;spacingRight=4;overflow=hidden;rotatable=0;points=[[0,0.5],[1,0.5]];portConstraint=eastwest;" vertex="1" parent="L4FFusNpEaRzpc_e0NBY-102">
          <mxGeometry y="87" width="731" height="35" as="geometry" />
        </mxCell>
        <mxCell id="L4FFusNpEaRzpc_e0NBY-105" value="+РегулярноеВыражение: Строка []" style="text;strokeColor=#B20000;fillColor=#e51400;align=left;verticalAlign=top;spacingLeft=4;spacingRight=4;overflow=hidden;rotatable=0;points=[[0,0.5],[1,0.5]];portConstraint=eastwest;fontColor=#ffffff;" vertex="1" parent="L4FFusNpEaRzpc_e0NBY-102">
          <mxGeometry y="122" width="731" height="35" as="geometry" />
        </mxCell>
        <mxCell id="L4FFusNpEaRzpc_e0NBY-106" value="+Обработка: Строка []" style="text;strokeColor=none;fillColor=none;align=left;verticalAlign=top;spacingLeft=4;spacingRight=4;overflow=hidden;rotatable=0;points=[[0,0.5],[1,0.5]];portConstraint=eastwest;" vertex="1" parent="L4FFusNpEaRzpc_e0NBY-102">
          <mxGeometry y="157" width="731" height="35" as="geometry" />
        </mxCell>
        <mxCell id="L4FFusNpEaRzpc_e0NBY-107" style="line;strokeWidth=1;fillColor=none;align=left;verticalAlign=middle;spacingTop=-1;spacingLeft=3;spacingRight=3;rotatable=0;labelPosition=right;points=[];portConstraint=eastwest;strokeColor=inherit;" vertex="1" parent="L4FFusNpEaRzpc_e0NBY-102">
          <mxGeometry y="192" width="731" height="17" as="geometry" />
        </mxCell>
        <mxCell id="L4FFusNpEaRzpc_e0NBY-108" value="&lt;&lt;ТабличнаяЧасть&gt;&gt;&#xa;ТипыЦен" style="swimlane;fontStyle=1;align=center;verticalAlign=top;childLayout=stackLayout;horizontal=1;startSize=49.71428571428572;horizontalStack=0;resizeParent=1;resizeParentMax=0;resizeLast=0;collapsible=0;marginBottom=0;fillColor=#dae8fc;gradientColor=#7ea6e0;strokeColor=#6c8ebf;" vertex="1" parent="1">
          <mxGeometry x="816" y="561" width="408" height="231.71428571428572" as="geometry" />
        </mxCell>
        <mxCell id="L4FFusNpEaRzpc_e0NBY-109" value="+ТипЦены: СправочникСсылка.ВидыЦен []" style="text;strokeColor=none;fillColor=none;align=left;verticalAlign=top;spacingLeft=4;spacingRight=4;overflow=hidden;rotatable=0;points=[[0,0.5],[1,0.5]];portConstraint=eastwest;" vertex="1" parent="L4FFusNpEaRzpc_e0NBY-108">
          <mxGeometry y="49.71428571428572" width="408" height="33" as="geometry" />
        </mxCell>
        <mxCell id="L4FFusNpEaRzpc_e0NBY-110" value="+ПроцентНаценки: Число []" style="text;strokeColor=none;fillColor=none;align=left;verticalAlign=top;spacingLeft=4;spacingRight=4;overflow=hidden;rotatable=0;points=[[0,0.5],[1,0.5]];portConstraint=eastwest;" vertex="1" parent="L4FFusNpEaRzpc_e0NBY-108">
          <mxGeometry y="82.71428571428572" width="408" height="33" as="geometry" />
        </mxCell>
        <mxCell id="L4FFusNpEaRzpc_e0NBY-111" value="+МинимальнаСуммаНаценки: Число []" style="text;strokeColor=none;fillColor=none;align=left;verticalAlign=top;spacingLeft=4;spacingRight=4;overflow=hidden;rotatable=0;points=[[0,0.5],[1,0.5]];portConstraint=eastwest;" vertex="1" parent="L4FFusNpEaRzpc_e0NBY-108">
          <mxGeometry y="115.71428571428572" width="408" height="33" as="geometry" />
        </mxCell>
        <mxCell id="L4FFusNpEaRzpc_e0NBY-112" value="+РРЦ: Булево []" style="text;strokeColor=none;fillColor=none;align=left;verticalAlign=top;spacingLeft=4;spacingRight=4;overflow=hidden;rotatable=0;points=[[0,0.5],[1,0.5]];portConstraint=eastwest;" vertex="1" parent="L4FFusNpEaRzpc_e0NBY-108">
          <mxGeometry y="148.71428571428572" width="408" height="33" as="geometry" />
        </mxCell>
        <mxCell id="L4FFusNpEaRzpc_e0NBY-113" value="+Колонка: Число []" style="text;strokeColor=none;fillColor=none;align=left;verticalAlign=top;spacingLeft=4;spacingRight=4;overflow=hidden;rotatable=0;points=[[0,0.5],[1,0.5]];portConstraint=eastwest;" vertex="1" parent="L4FFusNpEaRzpc_e0NBY-108">
          <mxGeometry y="181.71428571428572" width="408" height="33" as="geometry" />
        </mxCell>
        <mxCell id="L4FFusNpEaRzpc_e0NBY-114" style="line;strokeWidth=1;fillColor=none;align=left;verticalAlign=middle;spacingTop=-1;spacingLeft=3;spacingRight=3;rotatable=0;labelPosition=right;points=[];portConstraint=eastwest;strokeColor=inherit;" vertex="1" parent="L4FFusNpEaRzpc_e0NBY-108">
          <mxGeometry y="214.71428571428572" width="408" height="17" as="geometry" />
        </mxCell>
        <mxCell id="L4FFusNpEaRzpc_e0NBY-115" value="&lt;&lt;ТабличнаяЧасть&gt;&gt;&#xa;Склады" style="swimlane;fontStyle=1;align=center;verticalAlign=top;childLayout=stackLayout;horizontal=1;startSize=68;horizontalStack=0;resizeParent=1;resizeParentMax=0;resizeLast=0;collapsible=0;marginBottom=0;fillColor=#dae8fc;gradientColor=#7ea6e0;strokeColor=#6c8ebf;" vertex="1" parent="1">
          <mxGeometry x="816" y="863" width="374" height="136" as="geometry" />
        </mxCell>
        <mxCell id="L4FFusNpEaRzpc_e0NBY-116" value="+Склад: СправочникСсылка.Склады []" style="text;strokeColor=none;fillColor=none;align=left;verticalAlign=top;spacingLeft=4;spacingRight=4;overflow=hidden;rotatable=0;points=[[0,0.5],[1,0.5]];portConstraint=eastwest;" vertex="1" parent="L4FFusNpEaRzpc_e0NBY-115">
          <mxGeometry y="68" width="374" height="45" as="geometry" />
        </mxCell>
        <mxCell id="L4FFusNpEaRzpc_e0NBY-117" style="line;strokeWidth=1;fillColor=none;align=left;verticalAlign=middle;spacingTop=-1;spacingLeft=3;spacingRight=3;rotatable=0;labelPosition=right;points=[];portConstraint=eastwest;strokeColor=inherit;" vertex="1" parent="L4FFusNpEaRzpc_e0NBY-115">
          <mxGeometry y="113" width="374" height="23" as="geometry" />
        </mxCell>
        <mxCell id="L4FFusNpEaRzpc_e0NBY-118" value="&lt;&lt;ТабличнаяЧасть&gt;&gt;&#xa;ШаблоныЗагрузкиДляСравнения" style="swimlane;fontStyle=1;align=center;verticalAlign=top;childLayout=stackLayout;horizontal=1;startSize=71;horizontalStack=0;resizeParent=1;resizeParentMax=0;resizeLast=0;collapsible=0;marginBottom=0;fillColor=#dae8fc;gradientColor=#7ea6e0;strokeColor=#6c8ebf;" vertex="1" parent="1">
          <mxGeometry x="580" y="396.4" width="661" height="126" as="geometry" />
        </mxCell>
        <mxCell id="L4FFusNpEaRzpc_e0NBY-119" style="line;strokeWidth=1;fillColor=none;align=left;verticalAlign=middle;spacingTop=-1;spacingLeft=3;spacingRight=3;rotatable=0;labelPosition=right;points=[];portConstraint=eastwest;strokeColor=inherit;" vertex="1" parent="L4FFusNpEaRzpc_e0NBY-118">
          <mxGeometry y="71" width="661" height="8" as="geometry" />
        </mxCell>
        <mxCell id="L4FFusNpEaRzpc_e0NBY-120" value="+Шаблон: Настройки загрузки, Шаблон настройки загрузки(XML) : []" style="text;strokeColor=none;fillColor=none;align=left;verticalAlign=top;spacingLeft=4;spacingRight=4;overflow=hidden;rotatable=0;points=[[0,0.5],[1,0.5]];portConstraint=eastwest;" vertex="1" parent="L4FFusNpEaRzpc_e0NBY-118">
          <mxGeometry y="79" width="661" height="47" as="geometry" />
        </mxCell>
        <mxCell id="L4FFusNpEaRzpc_e0NBY-188" style="edgeStyle=orthogonalEdgeStyle;rounded=0;orthogonalLoop=1;jettySize=auto;html=1;" edge="1" parent="1" source="L4FFusNpEaRzpc_e0NBY-129" target="L4FFusNpEaRzpc_e0NBY-155">
          <mxGeometry relative="1" as="geometry" />
        </mxCell>
        <mxCell id="L4FFusNpEaRzpc_e0NBY-129" value="&lt;&lt;Справочник&gt;&gt;&#xa;НастройкиЗагрузкиXML" style="swimlane;fontStyle=1;align=center;verticalAlign=top;childLayout=stackLayout;horizontal=1;startSize=42.4;horizontalStack=0;resizeParent=1;resizeParentMax=0;resizeLast=0;collapsible=0;marginBottom=0;fillColor=#fff2cc;strokeColor=#d6b656;gradientColor=#ffd966;" vertex="1" parent="1">
          <mxGeometry x="1768" y="102" width="694" height="420.4" as="geometry" />
        </mxCell>
        <mxCell id="L4FFusNpEaRzpc_e0NBY-130" value="+ОбработкаЗагрузки: Строка []" style="text;strokeColor=#B20000;fillColor=#e51400;align=left;verticalAlign=top;spacingLeft=4;spacingRight=4;overflow=hidden;rotatable=0;points=[[0,0.5],[1,0.5]];portConstraint=eastwest;fontColor=#ffffff;" vertex="1" parent="L4FFusNpEaRzpc_e0NBY-129">
          <mxGeometry y="42.4" width="694" height="28" as="geometry" />
        </mxCell>
        <mxCell id="L4FFusNpEaRzpc_e0NBY-131" value="+Поставщик: СправочникСсылка.Партнеры []" style="text;strokeColor=#36393d;fillColor=#ffff88;align=left;verticalAlign=top;spacingLeft=4;spacingRight=4;overflow=hidden;rotatable=0;points=[[0,0.5],[1,0.5]];portConstraint=eastwest;" vertex="1" parent="L4FFusNpEaRzpc_e0NBY-129">
          <mxGeometry y="70.4" width="694" height="28" as="geometry" />
        </mxCell>
        <mxCell id="L4FFusNpEaRzpc_e0NBY-132" value="+ВидТранспорта: ПеречислениеСсылка.ВидыТранспортаСообщенийОбмена []" style="text;strokeColor=#B20000;fillColor=#e51400;align=left;verticalAlign=top;spacingLeft=4;spacingRight=4;overflow=hidden;rotatable=0;points=[[0,0.5],[1,0.5]];portConstraint=eastwest;fontColor=#ffffff;" vertex="1" parent="L4FFusNpEaRzpc_e0NBY-129">
          <mxGeometry y="98.4" width="694" height="28" as="geometry" />
        </mxCell>
        <mxCell id="L4FFusNpEaRzpc_e0NBY-133" value="+Адрес: Строка []" style="text;strokeColor=#6c8ebf;fillColor=#dae8fc;align=left;verticalAlign=top;spacingLeft=4;spacingRight=4;overflow=hidden;rotatable=0;points=[[0,0.5],[1,0.5]];portConstraint=eastwest;" vertex="1" parent="L4FFusNpEaRzpc_e0NBY-129">
          <mxGeometry y="126.4" width="694" height="28" as="geometry" />
        </mxCell>
        <mxCell id="L4FFusNpEaRzpc_e0NBY-134" value="+Логин: Строка []" style="text;strokeColor=#6c8ebf;fillColor=#dae8fc;align=left;verticalAlign=top;spacingLeft=4;spacingRight=4;overflow=hidden;rotatable=0;points=[[0,0.5],[1,0.5]];portConstraint=eastwest;" vertex="1" parent="L4FFusNpEaRzpc_e0NBY-129">
          <mxGeometry y="154.4" width="694" height="28" as="geometry" />
        </mxCell>
        <mxCell id="L4FFusNpEaRzpc_e0NBY-135" value="+Пароль: Строка []" style="text;strokeColor=#6c8ebf;fillColor=#dae8fc;align=left;verticalAlign=top;spacingLeft=4;spacingRight=4;overflow=hidden;rotatable=0;points=[[0,0.5],[1,0.5]];portConstraint=eastwest;" vertex="1" parent="L4FFusNpEaRzpc_e0NBY-129">
          <mxGeometry y="182.4" width="694" height="28" as="geometry" />
        </mxCell>
        <mxCell id="L4FFusNpEaRzpc_e0NBY-136" value="+ИмяФайла: Строка []" style="text;strokeColor=none;fillColor=none;align=left;verticalAlign=top;spacingLeft=4;spacingRight=4;overflow=hidden;rotatable=0;points=[[0,0.5],[1,0.5]];portConstraint=eastwest;" vertex="1" parent="L4FFusNpEaRzpc_e0NBY-129">
          <mxGeometry y="210.4" width="694" height="28" as="geometry" />
        </mxCell>
        <mxCell id="L4FFusNpEaRzpc_e0NBY-137" value="+КаталогХраненияВФайле: Строка []" style="text;strokeColor=none;fillColor=none;align=left;verticalAlign=top;spacingLeft=4;spacingRight=4;overflow=hidden;rotatable=0;points=[[0,0.5],[1,0.5]];portConstraint=eastwest;" vertex="1" parent="L4FFusNpEaRzpc_e0NBY-129">
          <mxGeometry y="238.4" width="694" height="28" as="geometry" />
        </mxCell>
        <mxCell id="L4FFusNpEaRzpc_e0NBY-138" value="+Склад: СправочникСсылка.Склады []" style="text;strokeColor=#36393d;fillColor=#ffff88;align=left;verticalAlign=top;spacingLeft=4;spacingRight=4;overflow=hidden;rotatable=0;points=[[0,0.5],[1,0.5]];portConstraint=eastwest;" vertex="1" parent="L4FFusNpEaRzpc_e0NBY-129">
          <mxGeometry y="266.4" width="694" height="28" as="geometry" />
        </mxCell>
        <mxCell id="L4FFusNpEaRzpc_e0NBY-139" value="+ВариантКомиссии: Вариант комиссии []" style="text;strokeColor=none;fillColor=none;align=left;verticalAlign=top;spacingLeft=4;spacingRight=4;overflow=hidden;rotatable=0;points=[[0,0.5],[1,0.5]];portConstraint=eastwest;" vertex="1" parent="L4FFusNpEaRzpc_e0NBY-129">
          <mxGeometry y="294.4" width="694" height="28" as="geometry" />
        </mxCell>
        <mxCell id="L4FFusNpEaRzpc_e0NBY-140" value="+Диски: Булево []" style="text;strokeColor=none;fillColor=none;align=left;verticalAlign=top;spacingLeft=4;spacingRight=4;overflow=hidden;rotatable=0;points=[[0,0.5],[1,0.5]];portConstraint=eastwest;" vertex="1" parent="L4FFusNpEaRzpc_e0NBY-129">
          <mxGeometry y="322.4" width="694" height="28" as="geometry" />
        </mxCell>
        <mxCell id="L4FFusNpEaRzpc_e0NBY-141" value="+ВидНоменклатуры: СправочникСсылка.ВидыНоменклатуры []" style="text;strokeColor=#36393d;fillColor=#ffff88;align=left;verticalAlign=top;spacingLeft=4;spacingRight=4;overflow=hidden;rotatable=0;points=[[0,0.5],[1,0.5]];portConstraint=eastwest;" vertex="1" parent="L4FFusNpEaRzpc_e0NBY-129">
          <mxGeometry y="350.4" width="694" height="28" as="geometry" />
        </mxCell>
        <mxCell id="L4FFusNpEaRzpc_e0NBY-142" value="+Активный: Булево []" style="text;strokeColor=#36393d;fillColor=#cce5ff;align=left;verticalAlign=top;spacingLeft=4;spacingRight=4;overflow=hidden;rotatable=0;points=[[0,0.5],[1,0.5]];portConstraint=eastwest;" vertex="1" parent="L4FFusNpEaRzpc_e0NBY-129">
          <mxGeometry y="378.4" width="694" height="28" as="geometry" />
        </mxCell>
        <mxCell id="L4FFusNpEaRzpc_e0NBY-143" style="line;strokeWidth=1;fillColor=none;align=left;verticalAlign=middle;spacingTop=-1;spacingLeft=3;spacingRight=3;rotatable=0;labelPosition=right;points=[];portConstraint=eastwest;strokeColor=inherit;" vertex="1" parent="L4FFusNpEaRzpc_e0NBY-129">
          <mxGeometry y="406.4" width="694" height="14" as="geometry" />
        </mxCell>
        <mxCell id="L4FFusNpEaRzpc_e0NBY-144" value="&lt;&lt;ТабличнаяЧасть&gt;&gt;&#xa;Склады" style="swimlane;fontStyle=1;align=center;verticalAlign=top;childLayout=stackLayout;horizontal=1;startSize=60;horizontalStack=0;resizeParent=1;resizeParentMax=0;resizeLast=0;collapsible=0;marginBottom=0;fillColor=#dae8fc;gradientColor=#7ea6e0;strokeColor=#6c8ebf;" vertex="1" parent="1">
          <mxGeometry x="2584" y="596.86" width="374" height="160" as="geometry" />
        </mxCell>
        <mxCell id="L4FFusNpEaRzpc_e0NBY-145" value="+ИД: Строка []" style="text;strokeColor=#6c8ebf;fillColor=#dae8fc;align=left;verticalAlign=top;spacingLeft=4;spacingRight=4;overflow=hidden;rotatable=0;points=[[0,0.5],[1,0.5]];portConstraint=eastwest;" vertex="1" parent="L4FFusNpEaRzpc_e0NBY-144">
          <mxGeometry y="60" width="374" height="40" as="geometry" />
        </mxCell>
        <mxCell id="L4FFusNpEaRzpc_e0NBY-146" value="+Склад: СправочникСсылка.Склады []" style="text;strokeColor=#36393d;fillColor=#ffff88;align=left;verticalAlign=top;spacingLeft=4;spacingRight=4;overflow=hidden;rotatable=0;points=[[0,0.5],[1,0.5]];portConstraint=eastwest;" vertex="1" parent="L4FFusNpEaRzpc_e0NBY-144">
          <mxGeometry y="100" width="374" height="40" as="geometry" />
        </mxCell>
        <mxCell id="L4FFusNpEaRzpc_e0NBY-147" style="line;strokeWidth=1;fillColor=none;align=left;verticalAlign=middle;spacingTop=-1;spacingLeft=3;spacingRight=3;rotatable=0;labelPosition=right;points=[];portConstraint=eastwest;strokeColor=inherit;" vertex="1" parent="L4FFusNpEaRzpc_e0NBY-144">
          <mxGeometry y="140" width="374" height="20" as="geometry" />
        </mxCell>
        <mxCell id="L4FFusNpEaRzpc_e0NBY-148" value="&lt;&lt;ТабличнаяЧасть&gt;&gt;&#xa;ТипыЦен" style="swimlane;fontStyle=1;align=center;verticalAlign=top;childLayout=stackLayout;horizontal=1;startSize=49.71428571428572;horizontalStack=0;resizeParent=1;resizeParentMax=0;resizeLast=0;collapsible=0;marginBottom=0;fillColor=#dae8fc;gradientColor=#7ea6e0;strokeColor=#6c8ebf;" vertex="1" parent="1">
          <mxGeometry x="2584" y="353" width="408" height="231.71428571428572" as="geometry" />
        </mxCell>
        <mxCell id="L4FFusNpEaRzpc_e0NBY-149" value="+ТипЦены: СправочникСсылка.ВидыЦен []" style="text;strokeColor=#36393d;fillColor=#ffff88;align=left;verticalAlign=top;spacingLeft=4;spacingRight=4;overflow=hidden;rotatable=0;points=[[0,0.5],[1,0.5]];portConstraint=eastwest;" vertex="1" parent="L4FFusNpEaRzpc_e0NBY-148">
          <mxGeometry y="49.71428571428572" width="408" height="33" as="geometry" />
        </mxCell>
        <mxCell id="L4FFusNpEaRzpc_e0NBY-150" value="+ПроцентНаценки: Число []" style="text;strokeColor=none;fillColor=none;align=left;verticalAlign=top;spacingLeft=4;spacingRight=4;overflow=hidden;rotatable=0;points=[[0,0.5],[1,0.5]];portConstraint=eastwest;" vertex="1" parent="L4FFusNpEaRzpc_e0NBY-148">
          <mxGeometry y="82.71428571428572" width="408" height="33" as="geometry" />
        </mxCell>
        <mxCell id="L4FFusNpEaRzpc_e0NBY-151" value="+МинимальнаСуммаНаценки: Число []" style="text;strokeColor=none;fillColor=none;align=left;verticalAlign=top;spacingLeft=4;spacingRight=4;overflow=hidden;rotatable=0;points=[[0,0.5],[1,0.5]];portConstraint=eastwest;" vertex="1" parent="L4FFusNpEaRzpc_e0NBY-148">
          <mxGeometry y="115.71428571428572" width="408" height="33" as="geometry" />
        </mxCell>
        <mxCell id="L4FFusNpEaRzpc_e0NBY-152" value="+Колонка: Строка []" style="text;strokeColor=#6c8ebf;fillColor=#dae8fc;align=left;verticalAlign=top;spacingLeft=4;spacingRight=4;overflow=hidden;rotatable=0;points=[[0,0.5],[1,0.5]];portConstraint=eastwest;" vertex="1" parent="L4FFusNpEaRzpc_e0NBY-148">
          <mxGeometry y="148.71428571428572" width="408" height="33" as="geometry" />
        </mxCell>
        <mxCell id="L4FFusNpEaRzpc_e0NBY-153" value="+ПрименитьКомиссию: Булево []" style="text;strokeColor=none;fillColor=none;align=left;verticalAlign=top;spacingLeft=4;spacingRight=4;overflow=hidden;rotatable=0;points=[[0,0.5],[1,0.5]];portConstraint=eastwest;" vertex="1" parent="L4FFusNpEaRzpc_e0NBY-148">
          <mxGeometry y="181.71428571428572" width="408" height="33" as="geometry" />
        </mxCell>
        <mxCell id="L4FFusNpEaRzpc_e0NBY-154" style="line;strokeWidth=1;fillColor=none;align=left;verticalAlign=middle;spacingTop=-1;spacingLeft=3;spacingRight=3;rotatable=0;labelPosition=right;points=[];portConstraint=eastwest;strokeColor=inherit;" vertex="1" parent="L4FFusNpEaRzpc_e0NBY-148">
          <mxGeometry y="214.71428571428572" width="408" height="17" as="geometry" />
        </mxCell>
        <mxCell id="L4FFusNpEaRzpc_e0NBY-155" value="&lt;&lt;ТабличнаяЧасть&gt;&gt;&#xa;Колонки" style="swimlane;fontStyle=1;align=center;verticalAlign=top;childLayout=stackLayout;horizontal=1;startSize=48;horizontalStack=0;resizeParent=1;resizeParentMax=0;resizeLast=0;collapsible=0;marginBottom=0;fillColor=#dae8fc;gradientColor=#7ea6e0;strokeColor=#6c8ebf;" vertex="1" parent="1">
          <mxGeometry x="1750" y="612" width="731" height="256" as="geometry" />
        </mxCell>
        <mxCell id="L4FFusNpEaRzpc_e0NBY-156" value="+ИмяСвойства: Строка []" style="text;strokeColor=#36393d;fillColor=#ffff88;align=left;verticalAlign=top;spacingLeft=4;spacingRight=4;overflow=hidden;rotatable=0;points=[[0,0.5],[1,0.5]];portConstraint=eastwest;" vertex="1" parent="L4FFusNpEaRzpc_e0NBY-155">
          <mxGeometry y="48" width="731" height="32" as="geometry" />
        </mxCell>
        <mxCell id="L4FFusNpEaRzpc_e0NBY-157" value="+Свойство: ПланВидовХарактеристикСсылка.ДополнительныеРеквизитыИСведения []" style="text;strokeColor=#36393d;fillColor=#ffff88;align=left;verticalAlign=top;spacingLeft=4;spacingRight=4;overflow=hidden;rotatable=0;points=[[0,0.5],[1,0.5]];portConstraint=eastwest;" vertex="1" parent="L4FFusNpEaRzpc_e0NBY-155">
          <mxGeometry y="80" width="731" height="32" as="geometry" />
        </mxCell>
        <mxCell id="L4FFusNpEaRzpc_e0NBY-158" value="+ИмяПоля: Строка []" style="text;strokeColor=#36393d;fillColor=#ffff88;align=left;verticalAlign=top;spacingLeft=4;spacingRight=4;overflow=hidden;rotatable=0;points=[[0,0.5],[1,0.5]];portConstraint=eastwest;" vertex="1" parent="L4FFusNpEaRzpc_e0NBY-155">
          <mxGeometry y="112" width="731" height="32" as="geometry" />
        </mxCell>
        <mxCell id="L4FFusNpEaRzpc_e0NBY-159" value="+РегулярноеВыражение: Строка []" style="text;strokeColor=none;fillColor=none;align=left;verticalAlign=top;spacingLeft=4;spacingRight=4;overflow=hidden;rotatable=0;points=[[0,0.5],[1,0.5]];portConstraint=eastwest;" vertex="1" parent="L4FFusNpEaRzpc_e0NBY-155">
          <mxGeometry y="144" width="731" height="32" as="geometry" />
        </mxCell>
        <mxCell id="L4FFusNpEaRzpc_e0NBY-160" value="+Обработка: Строка []" style="text;strokeColor=#B20000;fillColor=#e51400;align=left;verticalAlign=top;spacingLeft=4;spacingRight=4;overflow=hidden;rotatable=0;points=[[0,0.5],[1,0.5]];portConstraint=eastwest;fontColor=#ffffff;" vertex="1" parent="L4FFusNpEaRzpc_e0NBY-155">
          <mxGeometry y="176" width="731" height="32" as="geometry" />
        </mxCell>
        <mxCell id="L4FFusNpEaRzpc_e0NBY-161" value="+ТолькоЗаполненые: Булево []" style="text;strokeColor=none;fillColor=none;align=left;verticalAlign=top;spacingLeft=4;spacingRight=4;overflow=hidden;rotatable=0;points=[[0,0.5],[1,0.5]];portConstraint=eastwest;" vertex="1" parent="L4FFusNpEaRzpc_e0NBY-155">
          <mxGeometry y="208" width="731" height="32" as="geometry" />
        </mxCell>
        <mxCell id="L4FFusNpEaRzpc_e0NBY-162" style="line;strokeWidth=1;fillColor=none;align=left;verticalAlign=middle;spacingTop=-1;spacingLeft=3;spacingRight=3;rotatable=0;labelPosition=right;points=[];portConstraint=eastwest;strokeColor=inherit;" vertex="1" parent="L4FFusNpEaRzpc_e0NBY-155">
          <mxGeometry y="240" width="731" height="16" as="geometry" />
        </mxCell>
        <mxCell id="L4FFusNpEaRzpc_e0NBY-163" value="&lt;&lt;ТабличнаяЧасть&gt;&gt;&#xa;РасписаниеВыполнения" style="swimlane;fontStyle=1;align=center;verticalAlign=top;childLayout=stackLayout;horizontal=1;startSize=55.199999999999996;horizontalStack=0;resizeParent=1;resizeParentMax=0;resizeLast=0;collapsible=0;marginBottom=0;fillColor=#dae8fc;gradientColor=#7ea6e0;strokeColor=#6c8ebf;" vertex="1" parent="1">
          <mxGeometry x="2584" y="792.71" width="395" height="184.2" as="geometry" />
        </mxCell>
        <mxCell id="L4FFusNpEaRzpc_e0NBY-164" value="+Расписание: Хранилище значения []" style="text;strokeColor=none;fillColor=none;align=left;verticalAlign=top;spacingLeft=4;spacingRight=4;overflow=hidden;rotatable=0;points=[[0,0.5],[1,0.5]];portConstraint=eastwest;" vertex="1" parent="L4FFusNpEaRzpc_e0NBY-163">
          <mxGeometry y="55.199999999999996" width="395" height="37" as="geometry" />
        </mxCell>
        <mxCell id="L4FFusNpEaRzpc_e0NBY-165" value="+Остатки: Булево []" style="text;strokeColor=none;fillColor=none;align=left;verticalAlign=top;spacingLeft=4;spacingRight=4;overflow=hidden;rotatable=0;points=[[0,0.5],[1,0.5]];portConstraint=eastwest;" vertex="1" parent="L4FFusNpEaRzpc_e0NBY-163">
          <mxGeometry y="92.19999999999999" width="395" height="37" as="geometry" />
        </mxCell>
        <mxCell id="L4FFusNpEaRzpc_e0NBY-166" value="+Цены: Булево []" style="text;strokeColor=none;fillColor=none;align=left;verticalAlign=top;spacingLeft=4;spacingRight=4;overflow=hidden;rotatable=0;points=[[0,0.5],[1,0.5]];portConstraint=eastwest;" vertex="1" parent="L4FFusNpEaRzpc_e0NBY-163">
          <mxGeometry y="129.2" width="395" height="37" as="geometry" />
        </mxCell>
        <mxCell id="L4FFusNpEaRzpc_e0NBY-167" style="line;strokeWidth=1;fillColor=none;align=left;verticalAlign=middle;spacingTop=-1;spacingLeft=3;spacingRight=3;rotatable=0;labelPosition=right;points=[];portConstraint=eastwest;strokeColor=inherit;" vertex="1" parent="L4FFusNpEaRzpc_e0NBY-163">
          <mxGeometry y="166.2" width="395" height="18" as="geometry" />
        </mxCell>
        <mxCell id="L4FFusNpEaRzpc_e0NBY-177" value="FTP-ресурс" style="whiteSpace=wrap;strokeWidth=2;fillColor=#f8cecc;strokeColor=#b85450;" vertex="1" parent="1">
          <mxGeometry x="2516" y="205.9" width="260" height="17" as="geometry" />
        </mxCell>
        <mxCell id="L4FFusNpEaRzpc_e0NBY-178" value="Почтовые сообщения" style="whiteSpace=wrap;strokeWidth=2;fillColor=#f8cecc;strokeColor=#b85450;" vertex="1" parent="1">
          <mxGeometry x="2516" y="238" width="260" height="17" as="geometry" />
        </mxCell>
        <mxCell id="L4FFusNpEaRzpc_e0NBY-179" value="Локальный или сетевой каталог" style="whiteSpace=wrap;strokeWidth=2;fillColor=#f8cecc;strokeColor=#b85450;" vertex="1" parent="1">
          <mxGeometry x="2516" y="272" width="260" height="17" as="geometry" />
        </mxCell>
        <mxCell id="L4FFusNpEaRzpc_e0NBY-180" style="edgeStyle=orthogonalEdgeStyle;rounded=0;orthogonalLoop=1;jettySize=auto;html=1;entryX=0;entryY=0.5;entryDx=0;entryDy=0;" edge="1" parent="1" source="L4FFusNpEaRzpc_e0NBY-132" target="L4FFusNpEaRzpc_e0NBY-177">
          <mxGeometry relative="1" as="geometry" />
        </mxCell>
        <mxCell id="L4FFusNpEaRzpc_e0NBY-181" style="edgeStyle=orthogonalEdgeStyle;rounded=0;orthogonalLoop=1;jettySize=auto;html=1;entryX=0;entryY=0.5;entryDx=0;entryDy=0;" edge="1" parent="1" source="L4FFusNpEaRzpc_e0NBY-132" target="L4FFusNpEaRzpc_e0NBY-178">
          <mxGeometry relative="1" as="geometry" />
        </mxCell>
        <mxCell id="L4FFusNpEaRzpc_e0NBY-182" style="edgeStyle=orthogonalEdgeStyle;rounded=0;orthogonalLoop=1;jettySize=auto;html=1;entryX=0;entryY=0.5;entryDx=0;entryDy=0;" edge="1" parent="1" source="L4FFusNpEaRzpc_e0NBY-132" target="L4FFusNpEaRzpc_e0NBY-179">
          <mxGeometry relative="1" as="geometry" />
        </mxCell>
        <mxCell id="L4FFusNpEaRzpc_e0NBY-183" value="27 (шт)&#xa;ЗагрузкаОтПоставщиков (ОМ)" style="whiteSpace=wrap;strokeWidth=2;fontStyle=1;fillColor=#f8cecc;strokeColor=#b85450;" vertex="1" parent="1">
          <mxGeometry x="2516" y="144.4" width="260" height="42" as="geometry" />
        </mxCell>
        <mxCell id="L4FFusNpEaRzpc_e0NBY-184" style="edgeStyle=orthogonalEdgeStyle;rounded=0;orthogonalLoop=1;jettySize=auto;html=1;entryX=0;entryY=0.5;entryDx=0;entryDy=0;" edge="1" parent="1" source="L4FFusNpEaRzpc_e0NBY-130" target="L4FFusNpEaRzpc_e0NBY-183">
          <mxGeometry relative="1" as="geometry" />
        </mxCell>
        <mxCell id="L4FFusNpEaRzpc_e0NBY-185" style="edgeStyle=orthogonalEdgeStyle;rounded=0;orthogonalLoop=1;jettySize=auto;html=1;entryX=0.009;entryY=0.125;entryDx=0;entryDy=0;entryPerimeter=0;" edge="1" parent="1" source="L4FFusNpEaRzpc_e0NBY-141" target="L4FFusNpEaRzpc_e0NBY-148">
          <mxGeometry relative="1" as="geometry" />
        </mxCell>
        <mxCell id="L4FFusNpEaRzpc_e0NBY-186" style="edgeStyle=orthogonalEdgeStyle;rounded=0;orthogonalLoop=1;jettySize=auto;html=1;entryX=0.002;entryY=0.189;entryDx=0;entryDy=0;entryPerimeter=0;" edge="1" parent="1" source="L4FFusNpEaRzpc_e0NBY-142" target="L4FFusNpEaRzpc_e0NBY-144">
          <mxGeometry relative="1" as="geometry" />
        </mxCell>
        <mxCell id="L4FFusNpEaRzpc_e0NBY-187" style="edgeStyle=orthogonalEdgeStyle;rounded=0;orthogonalLoop=1;jettySize=auto;html=1;entryX=0;entryY=0.126;entryDx=0;entryDy=0;entryPerimeter=0;" edge="1" parent="1" source="L4FFusNpEaRzpc_e0NBY-142" target="L4FFusNpEaRzpc_e0NBY-163">
          <mxGeometry relative="1" as="geometry" />
        </mxCell>
        <mxCell id="L4FFusNpEaRzpc_e0NBY-189" style="edgeStyle=orthogonalEdgeStyle;rounded=0;orthogonalLoop=1;jettySize=auto;html=1;entryX=0.995;entryY=0.168;entryDx=0;entryDy=0;entryPerimeter=0;" edge="1" parent="1" source="L4FFusNpEaRzpc_e0NBY-76" target="L4FFusNpEaRzpc_e0NBY-102">
          <mxGeometry relative="1" as="geometry" />
        </mxCell>
        <mxCell id="L4FFusNpEaRzpc_e0NBY-190" style="edgeStyle=orthogonalEdgeStyle;rounded=0;orthogonalLoop=1;jettySize=auto;html=1;entryX=0.995;entryY=0.403;entryDx=0;entryDy=0;entryPerimeter=0;" edge="1" parent="1" source="L4FFusNpEaRzpc_e0NBY-84" target="L4FFusNpEaRzpc_e0NBY-118">
          <mxGeometry relative="1" as="geometry" />
        </mxCell>
        <mxCell id="L4FFusNpEaRzpc_e0NBY-191" style="edgeStyle=orthogonalEdgeStyle;rounded=0;orthogonalLoop=1;jettySize=auto;html=1;entryX=1;entryY=0.25;entryDx=0;entryDy=0;" edge="1" parent="1" source="L4FFusNpEaRzpc_e0NBY-99" target="L4FFusNpEaRzpc_e0NBY-115">
          <mxGeometry relative="1" as="geometry" />
        </mxCell>
      </root>
    </mxGraphModel>
  </diagram>
</mxfile>
